<?xml version="1.0" encoding="UTF-8" standalone="no"?>
<!DOCTYPE svg PUBLIC "-//W3C//DTD SVG 1.1//EN"
 "http://www.w3.org/Graphics/SVG/1.1/DTD/svg11.dtd">
<!-- Generated by graphviz version 2.43.0 (0)
 -->
<!-- Title: G Pages: 1 -->
<svg width="384pt" height="230pt"
 viewBox="0.00 0.00 383.50 230.00" xmlns="http://www.w3.org/2000/svg" xmlns:xlink="http://www.w3.org/1999/xlink">
<g id="graph0" class="graph" transform="scale(1 1) rotate(0) translate(4 226)">
<title>G</title>
<polygon fill="lemonchiffon" stroke="transparent" points="-4,4 -4,-226 379.5,-226 379.5,4 -4,4"/>
<!-- node_0x5587b0ce9f10 -->
<g id="node1" class="node">
<title>node_0x5587b0ce9f10</title>
<path fill="palegreen" stroke="#000000" stroke-width="2.5" d="M24.5,-129.5C24.5,-129.5 348.5,-129.5 348.5,-129.5 354.5,-129.5 360.5,-135.5 360.5,-141.5 360.5,-141.5 360.5,-209.5 360.5,-209.5 360.5,-215.5 354.5,-221.5 348.5,-221.5 348.5,-221.5 24.5,-221.5 24.5,-221.5 18.5,-221.5 12.5,-215.5 12.5,-209.5 12.5,-209.5 12.5,-141.5 12.5,-141.5 12.5,-135.5 18.5,-129.5 24.5,-129.5"/>
<text text-anchor="middle" x="186.5" y="-206.3" font-family="Helvetica,sans-Serif" font-size="14.00" fill="#000000">node_0x5587b0ce9f10</text>
<polyline fill="none" stroke="#000000" stroke-width="2.5" points="12.5,-198.5 360.5,-198.5 "/>
<text text-anchor="middle" x="186.5" y="-183.3" font-family="Helvetica,sans-Serif" font-size="14.00" fill="#000000">p_min (0, 0, 0)</text>
<polyline fill="none" stroke="#000000" stroke-width="2.5" points="12.5,-175.5 360.5,-175.5 "/>
<text text-anchor="middle" x="186.5" y="-160.3" font-family="Helvetica,sans-Serif" font-size="14.00" fill="#000000">p_max (9, 9, 9)</text>
<polyline fill="none" stroke="#000000" stroke-width="2.5" points="12.5,-152.5 360.5,-152.5 "/>
<text text-anchor="middle" x="96" y="-137.3" font-family="Helvetica,sans-Serif" font-size="14.00" fill="#000000">left: 0x5587b0ce9f60</text>
<polyline fill="none" stroke="#000000" stroke-width="2.5" points="179.5,-129.5 179.5,-152.5 "/>
<text text-anchor="middle" x="270" y="-137.3" font-family="Helvetica,sans-Serif" font-size="14.00" fill="#000000">right: 0x5587b0cea180</text>
</g>
<!-- node_0x5587b0ce9f60 -->
<g id="node2" class="node">
<title>node_0x5587b0ce9f60</title>
<path fill="cornflowerblue" stroke="#000000" stroke-width="2.5" d="M12,-0.5C12,-0.5 165,-0.5 165,-0.5 171,-0.5 177,-6.5 177,-12.5 177,-12.5 177,-80.5 177,-80.5 177,-86.5 171,-92.5 165,-92.5 165,-92.5 12,-92.5 12,-92.5 6,-92.5 0,-86.5 0,-80.5 0,-80.5 0,-12.5 0,-12.5 0,-6.5 6,-0.5 12,-0.5"/>
<text text-anchor="middle" x="88.5" y="-77.3" font-family="Helvetica,sans-Serif" font-size="14.00" fill="#000000">node_0x5587b0ce9f60</text>
<polyline fill="none" stroke="#000000" stroke-width="2.5" points="0,-69.5 177,-69.5 "/>
<text text-anchor="middle" x="88.5" y="-54.3" font-family="Helvetica,sans-Serif" font-size="14.00" fill="#000000">p_min (0, 0, 0)</text>
<polyline fill="none" stroke="#000000" stroke-width="2.5" points="0,-46.5 177,-46.5 "/>
<text text-anchor="middle" x="88.5" y="-31.3" font-family="Helvetica,sans-Serif" font-size="14.00" fill="#000000">p_max (1, 1, 1)</text>
<polyline fill="none" stroke="#000000" stroke-width="2.5" points="0,-23.5 177,-23.5 "/>
<text text-anchor="middle" x="88.5" y="-8.3" font-family="Helvetica,sans-Serif" font-size="14.00" fill="#000000">num of triangles = 2</text>
</g>
<!-- node_0x5587b0ce9f10&#45;&gt;node_0x5587b0ce9f60 -->
<g id="edge1" class="edge">
<title>node_0x5587b0ce9f10&#45;&gt;node_0x5587b0ce9f60</title>
<path fill="none" stroke="black" d="M151.67,-129.37C144.61,-120.21 137.12,-110.5 129.85,-101.09"/>
<polygon fill="black" stroke="black" points="132.43,-98.69 123.55,-92.92 126.88,-102.97 132.43,-98.69"/>
</g>
<!-- node_0x5587b0cea180 -->
<g id="node3" class="node">
<title>node_0x5587b0cea180</title>
<path fill="cornflowerblue" stroke="#000000" stroke-width="2.5" d="M207.5,-0.5C207.5,-0.5 363.5,-0.5 363.5,-0.5 369.5,-0.5 375.5,-6.5 375.5,-12.5 375.5,-12.5 375.5,-80.5 375.5,-80.5 375.5,-86.5 369.5,-92.5 363.5,-92.5 363.5,-92.5 207.5,-92.5 207.5,-92.5 201.5,-92.5 195.5,-86.5 195.5,-80.5 195.5,-80.5 195.5,-12.5 195.5,-12.5 195.5,-6.5 201.5,-0.5 207.5,-0.5"/>
<text text-anchor="middle" x="285.5" y="-77.3" font-family="Helvetica,sans-Serif" font-size="14.00" fill="#000000">node_0x5587b0cea180</text>
<polyline fill="none" stroke="#000000" stroke-width="2.5" points="195.5,-69.5 375.5,-69.5 "/>
<text text-anchor="middle" x="285.5" y="-54.3" font-family="Helvetica,sans-Serif" font-size="14.00" fill="#000000">p_min (0, 0, 0)</text>
<polyline fill="none" stroke="#000000" stroke-width="2.5" points="195.5,-46.5 375.5,-46.5 "/>
<text text-anchor="middle" x="285.5" y="-31.3" font-family="Helvetica,sans-Serif" font-size="14.00" fill="#000000">p_max (9, 9, 9)</text>
<polyline fill="none" stroke="#000000" stroke-width="2.5" points="195.5,-23.5 375.5,-23.5 "/>
<text text-anchor="middle" x="285.5" y="-8.3" font-family="Helvetica,sans-Serif" font-size="14.00" fill="#000000">num of triangles = 2</text>
</g>
<!-- node_0x5587b0ce9f10&#45;&gt;node_0x5587b0cea180 -->
<g id="edge2" class="edge">
<title>node_0x5587b0ce9f10&#45;&gt;node_0x5587b0cea180</title>
<path fill="none" stroke="black" d="M221.68,-129.37C228.89,-120.12 236.54,-110.31 243.95,-100.8"/>
<polygon fill="black" stroke="black" points="246.71,-102.95 250.1,-92.92 241.19,-98.65 246.71,-102.95"/>
</g>
</g>
</svg>
