<?xml version="1.0" encoding="UTF-8" standalone="no"?>
<!DOCTYPE svg PUBLIC "-//W3C//DTD SVG 1.1//EN"
 "http://www.w3.org/Graphics/SVG/1.1/DTD/svg11.dtd">
<!-- Generated by graphviz version 2.43.0 (0)
 -->
<!-- Title: G Pages: 1 -->
<svg width="187pt" height="101pt"
 viewBox="0.00 0.00 187.00 101.00" xmlns="http://www.w3.org/2000/svg" xmlns:xlink="http://www.w3.org/1999/xlink">
<g id="graph0" class="graph" transform="scale(1 1) rotate(0) translate(4 97)">
<title>G</title>
<polygon fill="lemonchiffon" stroke="transparent" points="-4,4 -4,-97 183,-97 183,4 -4,4"/>
<!-- node_0x562d70035f10 -->
<g id="node1" class="node">
<title>node_0x562d70035f10</title>
<path fill="cornflowerblue" stroke="#000000" stroke-width="2.5" d="M12,-0.5C12,-0.5 167,-0.5 167,-0.5 173,-0.5 179,-6.5 179,-12.5 179,-12.5 179,-80.5 179,-80.5 179,-86.5 173,-92.5 167,-92.5 167,-92.5 12,-92.5 12,-92.5 6,-92.5 0,-86.5 0,-80.5 0,-80.5 0,-12.5 0,-12.5 0,-6.5 6,-0.5 12,-0.5"/>
<text text-anchor="middle" x="89.5" y="-77.3" font-family="Helvetica,sans-Serif" font-size="14.00" fill="#000000">node_0x562d70035f10</text>
<polyline fill="none" stroke="#000000" stroke-width="2.5" points="0,-69.5 179,-69.5 "/>
<text text-anchor="middle" x="89.5" y="-54.3" font-family="Helvetica,sans-Serif" font-size="14.00" fill="#000000">p_min (0, 0, 0)</text>
<polyline fill="none" stroke="#000000" stroke-width="2.5" points="0,-46.5 179,-46.5 "/>
<text text-anchor="middle" x="89.5" y="-31.3" font-family="Helvetica,sans-Serif" font-size="14.00" fill="#000000">p_max (4, 4, 4)</text>
<polyline fill="none" stroke="#000000" stroke-width="2.5" points="0,-23.5 179,-23.5 "/>
<text text-anchor="middle" x="89.5" y="-8.3" font-family="Helvetica,sans-Serif" font-size="14.00" fill="#000000">num of triangles = 3</text>
</g>
</g>
</svg>
